HIERARCHY
ROOT Hips
{
	OFFSET 0.000000 0.000000 0.000000
	CHANNELS 6 Xposition Yposition Zposition Xrotation Yrotation Zrotation
	JOINT LeftUpLeg_virtual
	{
		OFFSET 0.000000 0.000000 0.000000
		CHANNELS 3 Xrotation Yrotation Zrotation
		JOINT LeftUpLeg
		{
			OFFSET 10.205400 -3.823500 0.155100
			CHANNELS 3 Xrotation Yrotation Zrotation
			JOINT LeftLeg
			{
				OFFSET 0.708757 -12.982077 0.567790
				CHANNELS 3 Xrotation Yrotation Zrotation
				JOINT LeftFoot
				{
					OFFSET -0.708756 -10.717838 -2.184338
					CHANNELS 3 Xrotation Yrotation Zrotation
					JOINT LeftToeBase
					{
						OFFSET 0.108149 -7.191104 7.560241
						CHANNELS 3 Xrotation Yrotation Zrotation
						JOINT LeftToe_End
						{
							OFFSET 0.070230 0.081724 4.490308
							CHANNELS 3 Xrotation Yrotation Zrotation
							End Site
							{
								OFFSET 0 0 0
							}
						}
					}
				}
			}
		}
	}
	JOINT RightUpLeg_virtual
	{
		OFFSET 0.000000 0.000000 0.000000
		CHANNELS 3 Xrotation Yrotation Zrotation
		JOINT RightUpLeg
		{
			OFFSET -10.205400 -3.823500 0.005500
			CHANNELS 3 Xrotation Yrotation Zrotation
			JOINT RightLeg
			{
				OFFSET -0.708756 -12.982134 0.610632
				CHANNELS 3 Xrotation Yrotation Zrotation
				JOINT RightFoot
				{
					OFFSET 0.708754 -10.717769 -1.945823
					CHANNELS 3 Xrotation Yrotation Zrotation
					JOINT RightToeBase
					{
						OFFSET -0.108140 -7.191069 7.372968
						CHANNELS 3 Xrotation Yrotation Zrotation
						JOINT RightToe_End
						{
							OFFSET -0.070227 0.081735 4.479403
							CHANNELS 3 Xrotation Yrotation Zrotation
							End Site
							{
								OFFSET 0 0 0
							}
						}
					}
				}
			}
		}
	}
	JOINT Spine_virtual
	{
		OFFSET 0.000000 0.000000 0.000000
		CHANNELS 3 Xrotation Yrotation Zrotation
		JOINT Spine
		{
			OFFSET 0.000000 6.876099 0.125700
			CHANNELS 3 Xrotation Yrotation Zrotation
			JOINT Spine1
			{
				OFFSET 0.000000 5.730043 0.104720
				CHANNELS 3 Xrotation Yrotation Zrotation
				JOINT Spine1_split
				{
					OFFSET 0.000000 5.730043 0.104720
					CHANNELS 3 Xrotation Yrotation Zrotation
					JOINT Spine2
					{
						OFFSET 0.000000 5.730043 0.104720
						CHANNELS 3 Xrotation Yrotation Zrotation
						JOINT Neck_virtual
						{
							OFFSET 0.000000 0.000000 0.000000
							CHANNELS 3 Xrotation Yrotation Zrotation
							JOINT Neck
							{
								OFFSET 0.000000 10.314075 0.188496
								CHANNELS 3 Xrotation Yrotation Zrotation
								JOINT Head
								{
									OFFSET 0.000000 7.643700 -2.377400
									CHANNELS 3 Xrotation Yrotation Zrotation
									JOINT HeadTop_End
									{
										OFFSET 0.000000 43.788605 -13.619600
										CHANNELS 3 Xrotation Yrotation Zrotation
										End Site
										{
											OFFSET 0 0 0
										}
									}
								}
							}
						}
						JOINT LeftShoulder_virtual
						{
							OFFSET 0.000000 0.000000 0.000000
							CHANNELS 3 Xrotation Yrotation Zrotation
							JOINT LeftShoulder
							{
								OFFSET 2.196100 4.412489 0.087492
								CHANNELS 3 Xrotation Yrotation Zrotation
								JOINT LeftShoulder_split
								{
									OFFSET 2.196100 4.412489 0.087492
									CHANNELS 3 Xrotation Yrotation Zrotation
									JOINT LeftArm
									{
										OFFSET 8.771219 -2.981674 -0.026999
										CHANNELS 3 Xrotation Yrotation Zrotation
										JOINT LeftForeArm
										{
											OFFSET 8.512804 0.000000 -0.000000
											CHANNELS 3 Xrotation Yrotation Zrotation
											JOINT LeftHand
											{
												OFFSET 18.484802 0.000000 -0.000000
												CHANNELS 3 Xrotation Yrotation Zrotation
												End Site
												{
													OFFSET 0 0 0
												}
											}
										}
									}
								}
							}
						}
						JOINT RightShoulder_virtual
						{
							OFFSET 0.000000 0.000000 0.000000
							CHANNELS 3 Xrotation Yrotation Zrotation
							JOINT RightShoulder
							{
								OFFSET -2.196100 4.412496 0.070690
								CHANNELS 3 Xrotation Yrotation Zrotation
								JOINT RightShoulder_split
								{
									OFFSET -2.196100 4.412496 0.070690
									CHANNELS 3 Xrotation Yrotation Zrotation
									JOINT RightArm
									{
										OFFSET -8.771282 -2.981682 -0.094208
										CHANNELS 3 Xrotation Yrotation Zrotation
										JOINT RightForeArm
										{
											OFFSET -8.494598 0.000000 0.000000
											CHANNELS 3 Xrotation Yrotation Zrotation
											JOINT RightHand
											{
												OFFSET -18.483803 0.000000 0.000001
												CHANNELS 3 Xrotation Yrotation Zrotation
												End Site
												{
													OFFSET 0 0 0
												}
											}
										}
									}
								}
							}
						}
					}
				}
			}
		}
	}
}
MOTION
Frames: 4
Frame Time: 0.03333333
5.061965 15.197036 -1.242846 0.000000 0.000000 0.000000 4.059716 -32.898706 10.345963 -88.686796 -19.672145 52.856157 69.718289 16.512085 -7.151795 53.911161 -5.618217 -1.343714 -2.705722 1.011253 0.758503 0.000000 0.000000 0.000000 -0.069712 -27.975584 9.888698 18.360956 -3.970266 -21.769059 105.867406 16.175783 -5.469284 8.315039 5.947044 25.205041 41.674396 -1.927748 -16.532886 0.000000 0.000000 0.000000 0.826982 -33.270726 9.420471 1.338686 2.239330 -6.509883 1.518805 -1.178765 -3.292573 1.264805 1.515360 -0.243121 0.000000 0.000000 0.000000 1.886003 -1.445995 -2.954474 -4.639399 1.500554 4.005384 3.376801 20.759221 2.763278 0.000000 0.000000 0.000000 1.434676 -0.887090 -3.044795 0.501389 4.841862 2.498281 -3.578507 -0.196702 -0.483470 1.450579 -14.086061 -54.539761 -20.378744 -88.796339 -19.789076 0.000000 0.000000 0.000000 2.550057 -1.210672 -3.445410 4.422484 16.180416 8.559263 -1.619968 3.094433 0.369177 10.855472 21.902059 34.442008 179.212976 53.438942 -179.054912 0.000000 0.000000 0.000000 
5.052501 15.204284 -1.248953 0.000000 0.000000 0.000000 4.070102 -32.861608 10.347469 -88.650849 -19.664050 52.871579 69.728575 16.530169 -7.166620 53.925764 -5.596068 -1.347715 -2.698897 1.011519 0.740250 0.000000 0.000000 0.000000 -0.053278 -27.949486 9.890833 18.348127 -3.951452 -21.741757 105.888723 16.159893 -5.487639 8.274170 5.939088 25.243510 41.688726 -1.933151 -16.547339 0.000000 0.000000 0.000000 0.848074 -33.235823 9.429818 1.342768 2.235129 -6.522259 1.525661 -1.187989 -3.302173 1.296451 1.479860 -0.239855 0.000000 0.000000 0.000000 1.895321 -1.453680 -2.961717 -4.636572 1.501926 4.006975 3.386528 20.771210 2.749123 0.000000 0.000000 0.000000 1.438111 -0.895482 -3.049821 0.491137 4.847676 2.501805 -3.578075 -0.239667 -0.460084 1.431337 -14.081317 -54.512703 -21.991643 -88.835175 -21.390249 0.000000 0.000000 0.000000 2.553926 -1.221680 -3.449283 4.430700 16.167920 8.549415 -1.625109 3.068703 0.359064 10.809678 21.854515 34.428754 179.228276 53.422103 -179.065567 0.000000 0.000000 0.000000 
5.038978 15.216246 -1.259089 0.000000 0.000000 0.000000 4.090827 -32.809982 10.358767 -88.563484 -19.661198 52.889003 69.685476 16.560043 -7.198497 53.936778 -5.563140 -1.356028 -2.687609 1.008203 0.723383 0.000000 0.000000 0.000000 -0.031422 -27.897262 9.900371 18.321098 -3.949034 -21.687073 105.912185 16.124350 -5.491641 8.209250 5.900648 25.232677 41.740857 -1.931137 -16.559261 0.000000 0.000000 0.000000 0.880233 -33.190054 9.451559 1.361421 2.222679 -6.543626 1.535884 -1.196233 -3.316427 1.314466 1.476991 -0.219215 0.000000 0.000000 0.000000 1.908377 -1.459087 -2.976248 -4.616357 1.499968 4.025763 3.375905 20.781254 2.752225 0.000000 0.000000 0.000000 1.443695 -0.901912 -3.061288 0.486589 4.854812 2.504574 -3.548795 -0.286161 -0.460564 1.358579 -14.016919 -54.470171 -25.794618 -88.962777 -25.172281 0.000000 0.000000 0.000000 2.563554 -1.230725 -3.459714 4.435883 16.168338 8.553793 -1.622439 3.068694 0.371227 10.746809 21.732767 34.409103 179.250938 53.396476 -179.086003 0.000000 0.000000 0.000000 
5.023744 15.230017 -1.272034 0.000000 0.000000 0.000000 4.116025 -32.759384 10.379540 -88.438423 -19.663899 52.906317 69.597920 16.594691 -7.244283 53.938673 -5.528544 -1.375493 -2.678707 1.001402 0.712984 0.000000 0.000000 0.000000 -0.013322 -27.839248 9.920041 18.272687 -3.964093 -21.621780 105.937805 16.079604 -5.486247 8.161435 5.851290 25.198441 41.796298 -1.916525 -16.565943 0.000000 0.000000 0.000000 0.913564 -33.152017 9.484445 1.388179 2.204620 -6.571777 1.546034 -1.202546 -3.333263 1.298446 1.491846 -0.201552 0.000000 0.000000 0.000000 1.922903 -1.461190 -2.995894 -4.579479 1.499144 4.052581 3.342662 20.789663 2.762885 0.000000 0.000000 0.000000 1.448848 -0.905505 -3.076876 0.487582 4.864601 2.494022 -3.502633 -0.334415 -0.491135 1.262443 -13.901213 -54.418713 -32.854935 -89.148660 -32.205715 0.000000 0.000000 0.000000 2.574732 -1.235816 -3.474737 4.439132 16.177844 8.562070 -1.619508 3.098592 0.391914 10.675306 21.589885 34.378395 179.269298 53.386726 -179.105605 0.000000 0.000000 0.000000 
